<?xml version="1.0" encoding="utf-8"?>
<!-- Generator: Adobe Illustrator 14.0.0, SVG Export Plug-In . SVG Version: 6.00 Build 43363)  -->
<!DOCTYPE svg PUBLIC "-//W3C//DTD SVG 1.1//EN" "http://www.w3.org/Graphics/SVG/1.1/DTD/svg11.dtd">
<svg version="1.1" id="图层_1" xmlns="http://www.w3.org/2000/svg" xmlns:xlink="http://www.w3.org/1999/xlink" x="0px" y="0px"
	 width="290px" height="309px" viewBox="0 0 290 309" enable-background="new 0 0 290 309" xml:space="preserve">
<path fill-rule="evenodd" clip-rule="evenodd" fill="#84B8CE" d="M63.773,26.365c48.934,0,97.867,0,146.801,0
	c20.688,2.45,21.002,25.273,19.698,49.715c11.719,0.684,21.564,7.716,22.981,19.229c0.853,6.93-1.946,12.984-4.221,19.229
	c-4.332,11.889-8.188,21.462-12.664,33.77c-1.973,5.425-5.217,11.046-6.097,16.884c-1.841,12.208,0,28.59,0,43.149
	c0,29.21,4.312,53.954-19.698,58.157c-48.934,0-97.868,0-146.801,0c-4.227-1.394-9.919-3.119-13.601-7.035
	c-10.029-10.665-6.097-39.98-6.097-61.909c0-41.769,0-86.764,0-128.041c0-9.237-1.008-18.739,0.469-25.327
	C46.659,34.753,56.119,27.605,63.773,26.365z M200.725,115.008c-33.479,0-68.677,0.001-102.713,0c-9.42,0-27.734,2.902-28.61-5.628
	c-1.081-10.53,14.872-7.973,26.264-7.973c23.72,0,45.837,0,68.476,0c11.581,0,24.116-1.667,34.238,0
	c3.598,0.592,5.394,3.37,7.035,4.221c1.724-5.431,3.173-10.495,5.628-15.946c1.48-3.286,4.924-5.962,5.628-9.38
	c1.104-5.358,0-12.906,0-20.168c0-7.637,1.043-14.195-2.813-17.822c-5.499-5.171-27.063-2.345-37.053-2.345
	c-28.845,0-50.611,0-78.793,0c-10.393,0-32.897-2.003-37.521,2.345c-3.563,3.351-2.814,15.524-2.814,23.919
	c0,55.852,0,105.455,0,160.402c0,7.564-0.88,20.445,2.814,23.92c4.87,4.579,27.085,2.345,37.051,2.345c28.953,0,50.203,0,79.731,0
	c11.201,0,32.26,2.283,37.053-2.814c3.719-3.955,2.345-14.615,2.345-22.512c0-9.434,0.406-15.838-0.469-24.389
	c-1.66,10.17-9.302,12.389-16.884,17.822c-4.176,2.991-9.011,9.184-14.54,8.442c-5.093-0.684-6.68-9.406-7.974-14.54
	c-1.6-6.352-4.385-13.47-4.221-18.76c0.203-6.525,5.283-14.979,7.504-21.105c2.799-7.72,5.162-14.783,7.505-21.575
	c-30.516,0-62.758,0-93.803,0c-9.549,0-24.388,2.618-24.388-7.035c0-9.707,15.465-7.034,26.264-7.034c32.451,0,67.648,0,97.086,0
	c2.931-8.17,7.125-17.576,8.911-25.327C201.657,114.69,200.841,114.499,200.725,115.008z M202.601,202.244
	c10.646-30.422,21.696-60.738,32.831-91.457c1.42-3.916,4.729-9.148,4.221-13.602c-0.524-4.596-6.201-8.977-12.194-6.565
	c-5.611,2.258-8.512,17.885-11.256,25.326c-8.382,22.731-16.906,45.132-24.857,67.068c-1.739,4.799-4.614,10.588-4.69,14.07
	c-0.099,4.545,3.536,11.002,3.752,14.07C194.299,208.014,198.42,205.099,202.601,202.244z"/>
<path fill-rule="evenodd" clip-rule="evenodd" fill="#84B8CE" d="M74.561,63.886c7.942-2.208,24.926-0.469,34.707-0.469
	c28.729,0,55.401-1.183,85.829,0c7.066,0.275,11.44,2.525,9.85,8.442c-2.085,7.751-20.376,5.159-31.424,5.159
	c-24.892,0-46.202,0-72.697,0c-11.285,0-29.81,2.1-31.423-4.69C68.284,67.626,70.271,65.079,74.561,63.886z"/>
<path fill-rule="evenodd" clip-rule="evenodd" fill="#84B8CE" d="M73.623,178.325c7.426-2.569,24.067-0.469,33.769-0.469
	c3.8,0,9.126,0,16.415,0c7.757,0,17.214-1.271,15.946,7.973c-1.209,8.815-24.297,5.628-34.706,5.628
	c-11.274,0-33.746,3.03-35.645-4.689C68.309,182.326,70.349,179.457,73.623,178.325z"/>
<path fill-rule="evenodd" clip-rule="evenodd" fill="#84B8CE" d="M74.092,216.314c8.327-0.835,21.84-0.469,35.645-0.469
	c10.429,0,28.654-2.494,30.017,5.159c2.188,12.295-21.323,8.442-33.3,8.442c-11.76,0-35.215,3.037-37.051-4.69
	C68.375,220.438,70.056,217.899,74.092,216.314z"/>
</svg>
