<?xml version="1.0" encoding="utf-8"?>
<!-- Generator: Adobe Illustrator 14.0.0, SVG Export Plug-In . SVG Version: 6.00 Build 43363)  -->
<!DOCTYPE svg PUBLIC "-//W3C//DTD SVG 1.1//EN" "http://www.w3.org/Graphics/SVG/1.1/DTD/svg11.dtd">
<svg version="1.1" id="图层_1" xmlns="http://www.w3.org/2000/svg" xmlns:xlink="http://www.w3.org/1999/xlink" x="0px" y="0px"
	 width="363px" height="381px" viewBox="0 0 363 381" enable-background="new 0 0 363 381" xml:space="preserve">
<path fill-rule="evenodd" clip-rule="evenodd" fill="#84B8CE" d="M86.713,33.354c9.786,0,19.573,0,29.358,0
	c0.415,9.49,0.06,19.75,0.178,29.537c39.144,0.415,79.062,0.059,118.501,0.178c0-9.846,0-19.691,0-29.536
	c9.549-0.415,19.868-0.06,29.714-0.178c0,9.905,0,19.81,0,29.714c10.506-0.131,19.104-0.47,25.8,2.135
	c9.433,3.669,16.631,11.722,18.327,23.309c0.583,3.982,0.355,8.52,0.355,13.523c0,64.646,0,130.421,0,194.655
	c0,9.488-1.759,16.176-6.05,21.707c-3.948,5.091-9.674,9.196-16.903,10.854c-7.746,1.776-18.072,0.712-27.223,0.712
	c-55.861,0-110.615,0-166.721,0c-9.109,0-19.35,1.053-27.045-0.712c-7.414-1.699-12.938-5.855-16.903-11.031
	c-4.325-5.644-6.05-12.145-6.05-21.708c0-64.122,0.178-129.492,0.178-194.477c0-10.252,0.125-17.409,3.737-24.021
	c3.235-5.922,8.405-10.254,14.946-12.811c6.748-2.638,15.267-2.257,25.622-2.135c0-9.727,0-19.454,0-29.181
	C86.52,33.635,86.506,33.384,86.713,33.354z M71.767,137.799c0,54.151,0,108.3,0,162.45c69.157,0,138.309,0,207.466,0
	c0-54.328,0-108.655,0-162.984c-69.095,0-138.193,0-207.289,0C71.738,137.295,71.752,137.546,71.767,137.799z"/>
<path fill-rule="evenodd" clip-rule="evenodd" fill="#84B8CE" d="M175.678,196.516c24.674,0,49.346,0,74.019,0
	c-0.118,24.673,0.237,49.82-0.178,74.196c-24.673,0-49.345,0-74.019,0c0-24.554,0-49.108,0-73.662
	C175.485,196.797,175.471,196.546,175.678,196.516z"/>
</svg>
