<?xml version="1.0" encoding="utf-8"?>
<!-- Generator: Adobe Illustrator 14.0.0, SVG Export Plug-In . SVG Version: 6.00 Build 43363)  -->
<!DOCTYPE svg PUBLIC "-//W3C//DTD SVG 1.1//EN" "http://www.w3.org/Graphics/SVG/1.1/DTD/svg11.dtd">
<svg version="1.1" id="图层_1" xmlns="http://www.w3.org/2000/svg" xmlns:xlink="http://www.w3.org/1999/xlink" x="0px" y="0px"
	 width="441px" height="410px" viewBox="0 0 441 410" enable-background="new 0 0 441 410" xml:space="preserve">
<path fill-rule="evenodd" clip-rule="evenodd" fill="#84B8CE" d="M382.859,141.445c6.184-6.184,18.304-13.909,18-23
	c-0.282-8.473-13.478-17.478-19-23c-16.325-16.326-26.016-26.016-42-42c-6.169-6.169-15.021-18.9-21-21
	c-12.612-4.43-23.761,11.762-31,19c-19.836,19.837-40.483,41.941-59,59c4.021,7.784,12.602,13.326,22,22
	c7.695,7.102,15.414,20.909,25,19c4.27-0.85,6.951-5.811,7-9c0.188-12.044-17.838-15.517-22-26c3.804-1.648,12.452-17.194,17-17
	c2.944,0.126,10.194,11.193,12,13c5.9,5.9,22.765,16.092,23,0c0.176-11.992-19.396-17.052-22-26c7.25-8.084,14.917-15.75,23-23
	c8.94,9.309,16.408,17.408,27,28c4.201,4.201,28.188,23.638,28,28c-0.039,0.924-12.442,12.443-16,16
	c-12.937,12.937-21.003,21.003-33,33c-4.153,4.153-16.77,13.348-17,16c-0.567,6.549,15.784,14.639,19,19
	C341.966,182.968,361.679,162.627,382.859,141.445z M332.859,250.445c-61.276-61.277-120.213-122.213-181-183
	c-10.052-10.052-25.349-30.66-39-29c-16.797,2.042-31.539,10.037-44,24c-10.46,11.72-22.042,31.692-19,46
	c1.568,7.377,21.509,23.509,29,31c69.41,69.41,135.743,138.799,205,205c1.566,1.497,3.473,6.753,7,5c3.414-8.587,6.279-17.721,10-26
	c9.055-2.279,16.529-6.138,26-8c2.333-9.668,5.43-18.571,9-27c8.579-2.422,15.71-6.291,25-8
	C354.284,268.735,342.81,260.396,332.859,250.445z M157.86,270.445c15.565-5.49-5.737-23.402-12-30
	c-8.588-9.048-15.644-15.855-21-22c-1.278-0.055-1.385-1.282-3-1c-13.088,14.568-23.885,23.885-41,41
	c-7.207,7.206-35.613,29.991-37,41c-1.456,11.555,13.029,20.029,20,27c16.829,16.829,25.48,26.48,42,43
	c5.744,5.743,15.802,18.594,24,19c8.792,0.436,19.28-12.28,24-17c16.587-16.587,24.501-24.502,41-41
	c3.926-3.926,20.131-17.926,20-21c-0.086-2.022-4.419-3.419-5-4c-3.031-3.03-12.098-14.081-14-14c-1.776,0.076-12.95,12.95-16,16
	c-17.563,17.563-32.738,35.012-50,49c-17.416-18.917-36.584-36.083-54-55c5.975-2.135,16.344-23.285,23-23
	c2.709,0.116,8.887,9.887,12,13c4.749,4.749,8.499,10.101,17,9c14.502-14.213-10.107-25.307-16-35c5.407-5.594,9.928-12.072,17-16
	C137.835,253.494,143.223,275.608,157.86,270.445z M374.859,323.445c-21.437,5.563-36.296,17.704-40,41
	c17.72,1.979,32.357,12.268,51,10C387.013,356.585,377.655,340.68,374.859,323.445z"/>
<path fill-rule="evenodd" clip-rule="evenodd" fill="#84B8CE" d="M321.859,203.445c-3.216-4.361-19.567-12.451-19-19
	c0.23-2.652,12.847-11.847,17-16c11.997-11.997,20.063-20.063,33-33c3.558-3.557,15.961-15.076,16-16
	c0.188-4.362-23.799-23.799-28-28c-10.592-10.592-18.06-18.691-27-28c-8.083,7.25-15.75,14.916-23,23
	c2.604,8.948,22.176,14.008,22,26c-0.235,16.092-17.1,5.9-23,0c-1.806-1.807-9.056-12.874-12-13c-4.548-0.194-13.196,15.352-17,17
	c4.162,10.483,22.188,13.956,22,26c-0.049,3.189-2.73,8.15-7,9c-9.586,1.909-17.305-11.898-25-19c-9.398-8.674-17.979-14.216-22-22
	c18.517-17.059,39.164-39.163,59-59c7.239-7.238,18.388-23.43,31-19c5.979,2.1,14.831,14.831,21,21
	c15.984,15.984,25.675,25.674,42,42c5.522,5.522,18.718,14.527,19,23c0.304,9.091-11.816,16.816-18,23
	C361.679,162.627,341.966,182.968,321.859,203.445z"/>
<path fill-rule="evenodd" clip-rule="evenodd" fill="#84B8CE" d="M360.859,280.445c-9.29,1.709-16.421,5.578-25,8
	c-3.57,8.429-6.667,17.332-9,27c-9.471,1.862-16.945,5.721-26,8c-3.721,8.279-6.586,17.413-10,26c-3.527,1.753-5.434-3.503-7-5
	c-69.256-66.201-135.59-135.59-205-205c-7.491-7.491-27.432-23.623-29-31c-3.042-14.308,8.54-34.28,19-46
	c12.461-13.963,27.203-21.958,44-24c13.651-1.66,28.948,18.948,39,29c60.787,60.787,119.723,121.723,181,183
	C342.81,260.396,354.284,268.735,360.859,280.445z"/>
<path fill-rule="evenodd" clip-rule="evenodd" fill="#84B8CE" d="M128.86,249.445c-7.072,3.928-11.593,10.406-17,16
	c5.893,9.693,30.502,20.787,16,35c-8.501,1.101-12.251-4.251-17-9c-3.113-3.113-9.291-12.884-12-13
	c-6.656-0.285-17.025,20.865-23,23c17.416,18.917,36.584,36.083,54,55c17.262-13.988,32.437-31.437,50-49
	c3.05-3.05,14.224-15.924,16-16c1.902-0.081,10.969,10.97,14,14c0.581,0.581,4.914,1.978,5,4c0.131,3.074-16.074,17.074-20,21
	c-16.499,16.498-24.413,24.413-41,41c-4.72,4.72-15.208,17.436-24,17c-8.198-0.406-18.256-13.257-24-19
	c-16.52-16.52-25.171-26.171-42-43c-6.971-6.971-21.456-15.445-20-27c1.387-11.009,29.793-33.794,37-41
	c17.115-17.115,27.912-26.432,41-41c1.615-0.282,1.722,0.945,3,1c5.356,6.145,12.412,12.952,21,22c6.263,6.598,27.565,24.51,12,30
	C143.223,275.608,137.835,253.494,128.86,249.445z"/>
<path fill-rule="evenodd" clip-rule="evenodd" fill="#84B8CE" d="M385.859,374.445c-18.643,2.268-33.28-8.021-51-10
	c3.704-23.296,18.563-35.438,40-41C377.655,340.68,387.013,356.585,385.859,374.445z"/>
</svg>
